# AST/ASF file generated using VICON BodyLanguage
# -----------------------------------------------
:version 1.10
:name VICON
:units
  mass 1.0
  length 0.45
  angle deg
:documentation
   .ast/.asf automatically generated from VICON data using
   VICON BodyBuilder and BodyLanguage model FoxedUp or BRILLIANT.MOD
:root
   order TX TY TZ RX RY RZ
   axis XYZ
   position 0 0 0  
   orientation 0 0 0 
:bonedata
  begin
     id 1 
     name lhipjoint
     direction 0.710188 -0.616876 0.339259 
     length 2.5669 
     axis 0 0 0  XYZ
  end
  begin
     id 2 
     name lfemur
     direction 0.34202 -0.939693 0  
     length 7.12796  
     axis 0 0 20  XYZ
    dof rx ry rz
    limits (-160.0 20.0)
           (-70.0 70.0)
           (-60.0 70.0)
  end
  begin
     id 3 
     name ltibia
     direction 0.34202 -0.939693 0   
     length 7.58108   
     axis 0 0 20   XYZ
    dof rx
    limits (-10.0 170.0)
  end
  begin
     id 4 
     name lfoot
     direction 0.0669471 -0.183936 0.980656   
     length 2.17365   
     axis -90 7.62852e-016 20   XYZ
    dof rx rz
    limits (-45.0 90.0)
           (-70.0 20.0)
  end
  begin
     id 5 
     name ltoes
     direction 1.53508e-011 -4.21705e-011 1   
     length 1.09427   
     axis -90 7.62852e-016 20   XYZ
    dof rx
    limits (-90.0 20.0)
  end
  begin
     id 6 
     name rhipjoint
     direction -0.700191 -0.625589 0.34405   
     length 2.53115  
     axis 0 0 0  XYZ 
  end
  begin
     id 7 
     name rfemur
     direction -0.34202 -0.939693 0   
     length 7.33006   
     axis 0 0 -20   XYZ
    dof rx ry rz
    limits (-160.0 20.0)
           (-70.0 70.0)
           (-70.0 60.0)
  end
  begin
     id 8 
     name rtibia
     direction -0.34202 -0.939693 0   
     length 7.64926   
     axis 0 0 -20   XYZ
    dof rx
    limits (-10.0 170.0)
 end
 begin
     id 9 
     name rfoot
     direction -0.0688927 -0.189281 0.979503   
     length 2.20493  
     axis -90 -7.62852e-016 -20   XYZ
    dof rx rz
    limits (-45.0 90.0)
           (-20.0 70.0)
  end
  begin
     id 10 
     name rtoes
     direction -1.53567e-011 -4.21933e-011 1   
     length 1.10919   
     axis -90 -7.62852e-016 -20   XYZ
    dof rx
    limits (-90.0 20.0)
  end
  begin
     id 11 
     name lowerback
     direction -0.0167868 0.989873 -0.140959   
     length 2.14596   
     axis 0 0 0   XYZ
    dof rx ry rz
    limits (-20.0 45.0)
           (-30.0 30.0)
           (-30.0 30.0)
  end
  begin
     id 12 
     name upperback
     direction 0.0129109 0.998033 0.0613525   
     length 2.10457   
     axis 0 0 0   XYZ
    dof rx ry rz
    limits (-20.0 45.0)
           (-30.0 30.0)
           (-30.0 30.0)
  end
  begin
     id 13 
     name thorax
     direction 0.0177047 0.991119 0.131797   
     length 2.17652   
     axis 0 0 0   XYZ
    dof rx ry rz
    limits (-20.0 45.0)
           (-30.0 30.0)
           (-30.0 30.0)
  end
  begin
     id 14 
     name lowerneck
     direction -0.0336893 0.997548 0.0613464   
     length 1.8912   
     axis 0 0 0   XYZ
    dof rx ry rz
    limits (-20.0 45.0)
           (-30.0 30.0)
           (-30.0 30.0)
  end
  begin
     id 15 
     name upperneck
     direction 0.0435909 0.997179 -0.0611028   
     length 1.8829   
     axis 0 0 0   XYZ
    dof rx ry rz
    limits (-20.0 45.0)
           (-30.0 30.0)
           (-30.0 30.0)
  end
  begin
     id 16
     name head
     direction 0.0175076 0.999444 -0.0283782  
     length 1.93197  
     axis 0 0 0   XYZ
    dof rx ry rz
    limits (-20.0 45.0)
           (-30.0 30.0)
           (-30.0 30.0)
  end
  begin
     id 17 
     name lclavicle
     direction 0.919164 0.389875 0.0559876  
     length 3.60004  
     axis 0 0 0   XYZ
    dof ry rz
    limits (-20.0 10.0)
           (0.0 20.0)
  end
  begin
     id 18 
     name lhumerus
     direction 1 -4.48958e-011 6.89191e-027   
     length 5.43301   
     axis 180 -30 -90   XYZ
    dof rx ry rz
    limits (-60.0 90.0)
           (-90.0 90.0)
           (-90.0 90.0)
  end
  begin
     id 19
     name lradius
     direction 1 -4.4897e-011 3.24727e-027   
     length 3.15936   
     axis 180 -30 -90   XYZ
    dof rx
    limits (-10.0 170.0)
  end
  begin
     id 20
     name lwrist
     direction 1 -4.4897e-011 9.00228e-027   
     length 1.57968   
     axis -6.29373e-015 90 90   XYZ
    dof ry
    limits (-180.0 0.0)
 end
  begin
     id 21 
     name lhand
     direction 1 -4.48968e-011 1.80042e-026   
     length 0.712827   
     axis -1.14882e-014 90 90   XYZ
    dof rx rz
    limits (-90.0 90.0)
           (-45.0 45.0)
  end
  begin
     id 22 
     name lfingers
     direction 1 -4.49019e-011 3.60267e-026   
     length 0.574699   
     axis -2.29769e-014 90 90   XYZ
    dof rx
    limits (0.0 90.0)
  end
  begin
     id 23
     name lthumb
     direction 0.707107 -6.3498e-011 0.707107   
     length 0.825157   
     axis -90 45 5.37419e-014   XYZ
    dof rx rz
    limits (-45.0 45.0)
           (-45.0 45.0)
  end
  begin
     id 24 
     name rclavicle
     direction -0.890334 0.455305 -0.00132111   
     length 3.51494  
     axis 0 0 0   XYZ 
    dof ry rz
    limits (-10.0 20.0)
           (-20.0 0.0)
  end
  begin
     id 25 
     name rhumerus
     direction -1 -4.48967e-011 5.07175e-028  
     length 5.34194   
     axis 180 30 90   XYZ
    dof rx ry rz
    limits (-90.0 60.0)
           (-90.0 90.0)
           (-90.0 90.0)
  end
  begin
     id 26 
     name rradius
     direction -1 -4.48955e-011 3.30467e-027   
     length 3.19351   
     axis 180 30 90   XYZ
    dof rx
    limits (-10.0 170.0)
  end
  begin
     id 27 
     name rwrist
     direction -1 -4.48968e-011 9.00208e-027   
     length 1.59676   
     axis -6.29373e-015 -90 -90   XYZ
    dof ry
    limits (-180.0 0.0)
  end
  begin
     id 28
     name rhand
     direction -1 -4.49e-011 1.80099e-026   
     length 0.743862   
     axis -1.14882e-014 -90 -90   XYZ
    dof rx rz
    limits (-90.0 90.0)
           (-45.0 45.0)
  end
  begin
     id 29
     name rfingers
     direction -1 -4.49009e-011 3.6023e-026   
     length 0.599721   
     axis -2.29769e-014 -90 -90   XYZ
    dof rx
    limits (0.0 90.0)
  end
  begin
     id 30
     name rthumb
     direction -0.707107 -6.35025e-011 0.707107   
     length 0.861083   
     axis -90 -45 -5.37419e-014   XYZ
    dof rx rz
    limits (-45.0 45.0)
           (-45.0 45.0)
  end
:hierarchy
  begin
    root lhipjoint rhipjoint lowerback
    lhipjoint lfemur
    lfemur ltibia
    ltibia lfoot
    lfoot ltoes
    rhipjoint rfemur
    rfemur rtibia
    rtibia rfoot
    rfoot rtoes
    lowerback upperback
    upperback thorax
    thorax lowerneck lclavicle rclavicle
    lowerneck upperneck
    upperneck head
    lclavicle lhumerus
    lhumerus lradius
    lradius lwrist
    lwrist lhand lthumb
    lhand lfingers
    rclavicle rhumerus
    rhumerus rradius
    rradius rwrist
    rwrist rhand rthumb
    rhand rfingers
  end

#!OML:ASF H:\Martial Arts Walks\Project 1\Capture day 1\Session 1\male.ASF
:FULLY-SPECIFIED
:DEGREES
874
root -0.96517 13.1728 19.3671 13.0756 24.4739 12.5649
lowerback 8.91209 3.25064 -15.9638
upperback -2.39813 2.31606 -2.01069
thorax -8.27344 1.86066 6.37303
lowerneck 1.59745 -12.2264 -11.9856
upperneck 2.43751 -16.7463 10.4402
head 2.35224 -8.39733 4.47153
rclavicle 5.19325e-015 -3.53837e-014
rhumerus 44.9286 -10.9154 -54.6191
rradius 20.0374
rwrist 27.553
rhand -11.2042 -24.506
rfingers 7.12502
rthumb 14.8238 -53.9558
lclavicle 5.19325e-015 -3.53837e-014
lhumerus -72.4849 -17.4786 102.235
lradius 103.146
lwrist 65.3671
lhand -3.2123 49.9547
lfingers 7.12502
lthumb 22.5102 78.6626
rfemur -75.41 -26.7648 10.1622
rtibia 83.0249
rfoot -12.2633 9.43653
rtoes 2.69636
lfemur 23.5401 1.96402 -13.9304
ltibia 15.9514
lfoot -17.0741 33.4293
ltoes -31.5179
875
root -0.964873 13.1708 19.3707 13.026 24.4959 12.5247
lowerback 8.9155 3.2476 -15.9633
upperback -2.38856 2.31343 -1.9943
thorax -8.26475 1.85874 6.39155
lowerneck 1.66561 -12.1659 -12.0774
upperneck 2.40299 -16.6763 10.5621
head 2.34152 -8.36436 4.53021
rclavicle -4.4006e-014 8.94531e-015
rhumerus 44.9253 -10.9225 -54.6123
rradius 20.02
rwrist 27.5881
rhand -11.1463 -24.5231
rfingers 7.12502
rthumb 14.8795 -53.9688
lclavicle -4.4006e-014 8.94531e-015
lhumerus -72.4867 -17.4909 102.259
lradius 103.147
lwrist 65.3606
lhand -3.24881 49.9397
lfingers 7.12502
lthumb 22.4752 78.6519
rfemur -75.3624 -26.7598 10.1806
rtibia 83.0567
rfoot -12.3033 9.40695
rtoes 2.65309
lfemur 23.5671 1.96525 -13.8641
ltibia 15.9842
lfoot -17.1008 33.4222
ltoes -31.5259
876
root -0.964499 13.1689 19.3737 12.9865 24.5182 12.4996
lowerback 8.92014 3.24186 -15.972
upperback -2.38173 2.30531 -1.9821
thorax -8.25894 1.85484 6.41137
lowerneck 1.73105 -12.1155 -12.1278
upperneck 2.36755 -16.6169 10.6336
head 2.32423 -8.3367 4.56786
rclavicle -5.36719e-015 -2.94201e-014
rhumerus 44.9237 -10.9241 -54.6146
rradius 20.0024
rwrist 27.637
rhand -11.0861 -24.5296
rfingers 7.12502
rthumb 14.9375 -53.9709
lclavicle -5.36719e-015 -2.94201e-014
lhumerus -72.4868 -17.5034 102.282
lradius 103.139
lwrist 65.3313
lhand -3.20748 49.8693
lfingers 7.12502
lthumb 22.5148 78.5767
rfemur -75.3194 -26.7623 10.1856
rtibia 83.0854
rfoot -12.3431 9.38186
rtoes 2.59132
lfemur 23.5848 1.96644 -13.8131
ltibia 16.0214
lfoot -17.1305 33.4142
ltoes -31.5214
877
root -0.964062 13.1673 19.3759 12.9632 24.5411 12.4862
lowerback 8.91835 3.2323 -15.9874
upperback -2.37955 2.29189 -1.97406
thorax -8.25355 1.84889 6.4313
lowerneck 1.76237 -12.0851 -12.1347
upperneck 2.37007 -16.5798 10.6428
head 2.31714 -8.31915 4.57632
rclavicle -3.9906e-014 -2.5842e-014
rhumerus 44.9191 -10.9143 -54.6168
rradius 19.9911
rwrist 27.6779
rhand -11.0263 -24.5267
rfingers 7.12502
rthumb 14.9952 -53.9638
lclavicle -3.9906e-014 -2.5842e-014
lhumerus -72.4802 -17.5168 102.302
lradius 103.113
lwrist 65.2848
lhand -3.07929 49.7321
lfingers 7.12502
lthumb 22.6379 78.4245
rfemur -75.2888 -26.77 10.1835
rtibia 83.1087
rfoot -12.3774 9.35974
rtoes 2.5149
lfemur 23.5807 1.96648 -13.777
ltibia 16.0707
lfoot -17.163 33.4109
ltoes -31.5015
878
root -0.96344 13.1658 19.3776 12.9568 24.5636 12.4855
lowerback 8.91215 3.21959 -16.0072
upperback -2.38435 2.27351 -1.97228
thorax -8.25222 1.84124 6.44762
lowerneck 1.77487 -12.0813 -12.0822
upperneck 2.39573 -16.5737 10.5739
head 2.3118 -8.31654 4.54979
rclavicle 5.08143e-014 -7.45443e-014
rhumerus 44.9028 -10.8882 -54.6116
rradius 19.99
rwrist 27.6921
rhand -10.9725 -24.5149
rfingers 7.12502
rthumb 15.0469 -53.9481
lclavicle 5.08143e-014 -7.45443e-014
lhumerus -72.4719 -17.5334 102.321
lradius 103.073
lwrist 65.2345
lhand -2.93695 49.5953
lfingers 7.12502
lthumb 22.7745 78.271
rfemur -75.2706 -26.7837 10.173
rtibia 83.1271
rfoot -12.4053 9.34252
rtoes 2.44066
lfemur 23.5589 1.96301 -13.7596
ltibia 16.1253
lfoot -17.1961 33.415
ltoes -31.4544
879
root -0.962739 13.1648 19.3786 12.9741 24.5873 12.4993
lowerback 8.89795 3.20502 -16.0329
upperback -2.39746 2.25224 -1.97783
thorax -8.2549 1.83302 6.45955
lowerneck 1.76074 -12.098 -12.0024
upperneck 2.457 -16.5924 10.4636
head 2.31827 -8.32551 4.50275
rclavicle 2.74323e-014 2.84262e-014
rhumerus 44.8737 -10.8559 -54.5992
rradius 19.9972
rwrist 27.6746
rhand -10.9287 -24.4961
rfingers 7.12502
rthumb 15.0892 -53.9261
lclavicle 2.74323e-014 2.84262e-014
lhumerus -72.4604 -17.5611 102.341
lradius 103.014
lwrist 65.1903
lhand -2.75789 49.3892
lfingers 7.12502
lthumb 22.9463 78.0437
rfemur -75.2727 -26.8046 10.1557
rtibia 83.1386
rfoot -12.4251 9.32942
rtoes 2.32514
lfemur 23.5122 1.95141 -13.7655
ltibia 16.1824
lfoot -17.221 33.4313
ltoes -31.37
